<svg width="24" height="16" viewBox="0 0 24 16" fill="none" xmlns="http://www.w3.org/2000/svg">
<path d="M1 8C9.81738 -1.76807 14.6284 -0.888239 23 8" stroke="#A09F9F" stroke-width="1.3" stroke-linecap="round"/>
<path d="M1 8C9.81738 17.7681 14.6284 16.8882 23 8" stroke="#A09F9F" stroke-width="1.3" stroke-linecap="round"/>
<ellipse cx="11.9999" cy="7.99998" rx="1.1" ry="1.4" fill="#A09F9F"/>
<path d="M15.3 7.99993C15.3 8.99076 15.0247 9.9497 14.5229 10.7072C14.0211 11.4647 13.325 11.9721 12.5576 12.1395C11.7903 12.307 11.0012 12.1238 10.3298 11.6223C9.65832 11.1208 9.1478 10.3333 8.88845 9.3991C8.6291 8.46486 8.63762 7.444 8.9125 6.51698C9.18738 5.58996 9.71092 4.81648 10.3906 4.33325C11.0702 3.85003 11.8622 3.68819 12.6266 3.87634C13.3909 4.06449 14.0784 4.59052 14.5675 5.36143" stroke="#A09F9F" stroke-width="1.3" stroke-linecap="round"/>
</svg>
