<svg width="24" height="16" viewBox="0 0 24 16" fill="none" xmlns="http://www.w3.org/2000/svg">
<path d="M1 8C9.81738 -1.76807 14.6284 -0.888239 23 8" stroke="#A09F9F" stroke-width="1.3" stroke-linecap="round"/>
<path d="M1 8C9.81738 17.7681 14.6284 16.8882 23 8" stroke="#A09F9F" stroke-width="1.3" stroke-linecap="round"/>
<ellipse cx="11.9999" cy="7.99995" rx="1.1" ry="1.4" fill="#A09F9F"/>
<path d="M15.3 7.99999C15.3 8.99083 15.0247 9.94976 14.5229 10.7073C14.0211 11.4648 13.325 11.9721 12.5576 12.1396C11.7903 12.307 11.0012 12.1238 10.3298 11.6223C9.65832 11.1209 9.1478 10.3334 8.88845 9.39916C8.6291 8.46492 8.63762 7.44406 8.9125 6.51704C9.18738 5.59002 9.71092 4.81654 10.3906 4.33332C11.0702 3.85009 11.8622 3.68826 12.6266 3.87641C13.3909 4.06456 14.0784 4.59058 14.5675 5.36149" stroke="#A09F9F" stroke-width="1.3" stroke-linecap="round"/>
<line x1="2.38054" y1="1.69321" x2="22.6932" y2="14.6195" stroke="#A09F9F" stroke-width="2" stroke-linecap="round"/>
</svg>
